<svg width="173.21mm" height="76.553mm" version="1.2" viewBox="0 0 491 217" xmlns="http://www.w3.org/2000/svg">
 <title>Qt Svg Document</title>
 <desc>Generated with Qt</desc>
 <g fill-rule="evenodd" font-family="Helvetica" stroke="#000" stroke-linecap="square" stroke-linejoin="bevel">
  <g fill="#fff" font-size="12" font-weight="400" stroke="none">
   <path d="m0 0h491v217h-491v-217" fill-rule="evenodd" vector-effect="non-scaling-stroke"/>
  </g>
  <g fill="none" stroke-linecap="square" stroke-linejoin="bevel">
   <g font-size="12" font-weight="400">
    <g stroke="#008000" stroke-width="2">
     <path d="m44 97h10"/>
     <path d="m34 87 10 10"/>
     <path d="m34 107 10-10"/>
     <path d="m19 87h15"/>
     <path d="m19 107h15"/>
     <path d="m19 87v20"/>
     <path d="m22 102h4"/>
     <path d="m26 92h4"/>
     <path d="m30 102h4"/>
     <path d="m26 92v10"/>
     <path d="m30 92v10"/>
    </g>
    <g stroke="#000">
     <g fill="#000" stroke="none" aria-label="HighHalfPWM">
      <path d="m25.612 118.02v3.984h1.116v-8.748h-1.116v3.78h-4.5v-3.78h-1.116v8.748h1.116v-3.984z"/>
      <path d="m29.464 115.71h-0.996v6.288h0.996zm0-2.46h-1.008v1.26h1.008z"/>
      <path d="m35.164 115.71v0.912c-0.504-0.756-1.056-1.092-1.848-1.092-1.524 0-2.58 1.416-2.58 3.432 0 1.056 0.252 1.824 0.792 2.46 0.468 0.552 1.068 0.852 1.716 0.852 0.756 0 1.296-0.336 1.824-1.128v0.324c0 1.68-0.468 2.304-1.716 2.304-0.852 0-1.296-0.336-1.392-1.056h-1.02c0.096 1.164 1.02 1.896 2.388 1.896 0.924 0 1.692-0.3 2.1-0.804 0.48-0.588 0.66-1.368 0.66-2.844v-5.256zm-1.752 0.744c1.056 0 1.656 0.888 1.656 2.484 0 1.524-0.612 2.412-1.656 2.412-1.032 0-1.632-0.9-1.632-2.448 0-1.536 0.6-2.448 1.632-2.448z"/>
      <path d="m37.744 113.25v8.748h0.996v-3.468c0-1.284 0.672-2.124 1.704-2.124 0.336 0 0.648 0.096 0.888 0.276 0.288 0.216 0.408 0.516 0.408 0.96v4.356h0.996v-4.752c0-1.056-0.756-1.716-1.98-1.716-0.888 0-1.428 0.276-2.016 1.044v-3.324z"/>
      <path d="m50.188 118.02v3.984h1.116v-8.748h-1.116v3.78h-4.5v-3.78h-1.116v8.748h1.116v-3.984z"/>
      <path d="m58.576 121.41c-0.108 0.024-0.156 0.024-0.216 0.024-0.348 0-0.54-0.18-0.54-0.492v-3.696c0-1.116-0.816-1.716-2.364-1.716-0.924 0-1.656 0.264-2.088 0.732-0.288 0.324-0.408 0.684-0.432 1.308h1.008c0.084-0.768 0.54-1.116 1.476-1.116 0.912 0 1.404 0.336 1.404 0.936v0.264c-0.012 0.432-0.228 0.588-1.044 0.696-1.416 0.18-1.632 0.228-2.016 0.384-0.732 0.312-1.104 0.864-1.104 1.68 0 1.14 0.792 1.86 2.064 1.86 0.792 0 1.428-0.276 2.136-0.924 0.072 0.648 0.384 0.924 1.032 0.924 0.216 0 0.348-0.024 0.684-0.108zm-1.752-1.392c0 0.336-0.096 0.54-0.396 0.816-0.408 0.372-0.9 0.564-1.488 0.564-0.78 0-1.236-0.372-1.236-1.008 0-0.66 0.432-0.996 1.512-1.152 1.068-0.144 1.272-0.192 1.608-0.348z"/>
      <path d="m60.652 113.25h-1.008v8.748h1.008z"/>
      <path d="m64.588 115.71h-1.044v-0.984c0-0.42 0.228-0.636 0.696-0.636 0.084 0 0.12 0 0.348 0.012v-0.828c-0.228-0.048-0.36-0.06-0.564-0.06-0.924 0-1.476 0.528-1.476 1.428v1.068h-0.84v0.816h0.84v5.472h0.996v-5.472h1.044z"/>
      <path d="m67.036 118.29h2.748c0.684 0 1.224-0.204 1.692-0.624 0.528-0.48 0.756-1.044 0.756-1.848 0-1.644-0.972-2.568-2.7-2.568h-3.612v8.748h1.116zm0-0.984v-3.072h2.328c1.068 0 1.704 0.576 1.704 1.536s-0.636 1.536-1.704 1.536z"/>
      <path d="m81.508 122 2.22-8.748h-1.248l-1.608 7.104-1.992-7.104h-1.2l-1.944 7.104-1.644-7.104h-1.248l2.244 8.748h1.224l1.956-7.188 2.016 7.188z"/>
      <path d="m89.428 122 2.46-7.332v7.332h1.056v-8.748h-1.548l-2.544 7.62-2.592-7.62h-1.548v8.748h1.056v-7.332l2.484 7.332z"/>
     </g>
    </g>
    <g stroke="#000080">
     <g stroke-width="2">
      <path d="m214 167v10"/>
     </g>
     <g stroke-width="3">
      <path d="m203 177h22"/>
      <path d="m207 183h14"/>
      <path d="m211 189h6"/>
     </g>
     <g stroke-width="2">
      <path d="m334 97v40"/>
      <path d="m354 117h20"/>
      <path d="m354 112v10"/>
      <path d="m314 127h39"/>
      <path d="m314 107h39"/>
      <path d="m354 112c0-8.284-8.954-15-20-15" fill-rule="evenodd"/>
      <path d="m354 122c0 8.284-8.954 15-20 15" fill-rule="evenodd"/>
     </g>
    </g>
   </g>
   <g transform="translate(12)" font-size="12px" font-weight="400" stroke="#000">
    <g fill="#000" stroke="none" aria-label="CD4071BE_2">
     <path d="m303.94 80.964c-0.348-1.92-1.452-2.856-3.372-2.856-1.176 0-2.124 0.372-2.772 1.092-0.792 0.864-1.224 2.112-1.224 3.528 0 1.44 0.444 2.676 1.26 3.528 0.684 0.696 1.548 1.02 2.688 1.02 2.136 0 3.336-1.152 3.6-3.468h-1.152c-0.096 0.6-0.216 1.008-0.396 1.356-0.36 0.72-1.104 1.128-2.04 1.128-1.74 0-2.844-1.392-2.844-3.576 0-2.244 1.044-3.624 2.748-3.624 0.708 0 1.368 0.204 1.728 0.552 0.324 0.3 0.504 0.66 0.636 1.32z"/>
     <path d="m305.55 87h3.372c2.208 0 3.564-1.656 3.564-4.38 0-2.712-1.344-4.368-3.564-4.368h-3.372zm1.116-0.984v-6.78h2.064c1.728 0 2.64 1.164 2.64 3.396 0 2.22-0.912 3.384-2.64 3.384z"/>
     <path d="m317.07 84.9v2.1h1.056v-2.1h1.26v-0.948h-1.26v-5.628h-0.78l-3.864 5.46v1.116zm0-0.948h-2.664l2.664-3.828z"/>
     <path d="m323.12 78.324c-0.792 0-1.512 0.36-1.956 0.948-0.552 0.768-0.828 1.92-0.828 3.528 0 2.928 0.96 4.476 2.784 4.476 1.8 0 2.784-1.548 2.784-4.404 0-1.68-0.264-2.808-0.828-3.6-0.444-0.6-1.152-0.948-1.956-0.948zm0 0.936c1.14 0 1.704 1.164 1.704 3.516 0 2.472-0.552 3.624-1.728 3.624-1.116 0-1.68-1.2-1.68-3.588s0.564-3.552 1.704-3.552z"/>
     <path d="m332.73 78.492h-5.688v1.044h4.596c-2.028 2.892-2.856 4.668-3.492 7.464h1.128c0.468-2.724 1.536-5.064 3.456-7.62z"/>
     <path d="m336.27 80.82v6.18h1.056v-8.676h-0.696c-0.372 1.332-0.612 1.512-2.244 1.728v0.768z"/>
     <path d="m340.78 87h3.948c0.828 0 1.44-0.228 1.908-0.732 0.432-0.456 0.672-1.08 0.672-1.764 0-1.056-0.48-1.692-1.596-2.124 0.804-0.372 1.212-1.008 1.212-1.908 0-0.648-0.24-1.2-0.696-1.608-0.468-0.42-1.056-0.612-1.896-0.612h-3.552zm1.116-4.98v-2.784h2.16c0.624 0 0.972 0.084 1.272 0.312 0.312 0.24 0.48 0.6 0.48 1.08s-0.168 0.84-0.48 1.08c-0.3 0.228-0.648 0.312-1.272 0.312zm0 3.996v-3.012h2.724c0.984 0 1.572 0.564 1.572 1.512 0 0.936-0.588 1.5-1.572 1.5z"/>
     <path d="m350.04 83.016h4.764v-0.984h-4.764v-2.796h4.944v-0.984h-6.06v8.748h6.276v-0.984h-5.16z"/>
     <path d="m362.78 88.512h-7.2v0.6h7.2z"/>
     <path d="m368.59 85.956h-4.476c0.108-0.72 0.492-1.176 1.536-1.812l1.2-0.672c1.188-0.66 1.8-1.548 1.8-2.616 0-0.72-0.288-1.392-0.792-1.86-0.504-0.456-1.128-0.672-1.932-0.672-1.08 0-1.884 0.384-2.352 1.128-0.3 0.456-0.432 0.996-0.456 1.872h1.056c0.036-0.588 0.108-0.936 0.252-1.224 0.276-0.528 0.828-0.852 1.464-0.852 0.96 0 1.68 0.696 1.68 1.632 0 0.696-0.396 1.296-1.152 1.728l-1.104 0.648c-1.776 1.02-2.292 1.836-2.388 3.732h5.664z"/>
    </g>
   </g>
   <g font-size="12" font-weight="400">
    <g stroke="#000080" stroke-width="2">
     <path d="m437 117h-13"/>
     <path d="m437 117c0 3.314 2.686 6 6 6s6-2.686 6-6-2.686-6-6-6-6 2.686-6 6" fill-rule="evenodd"/>
    </g>
    <g stroke="#000">
     <g fill="#000" stroke="none" aria-label="Output">
      <path d="m432.67 129.11c-2.508 0-4.212 1.848-4.212 4.584 0 2.748 1.692 4.584 4.224 4.584 1.068 0 2.004-0.324 2.712-0.924 0.948-0.804 1.512-2.16 1.512-3.588 0-2.82-1.668-4.656-4.236-4.656zm0 0.984c1.896 0 3.12 1.428 3.12 3.648 0 2.112-1.26 3.552-3.108 3.552-1.872 0-3.108-1.44-3.108-3.6s1.236-3.6 3.096-3.6z"/>
      <path d="m443.12 138v-6.288h-0.996v3.564c0 1.284-0.672 2.124-1.716 2.124-0.792 0-1.296-0.48-1.296-1.236v-4.452h-0.996v4.848c0 1.044 0.78 1.716 2.004 1.716 0.924 0 1.512-0.324 2.1-1.152v0.876z"/>
      <path d="m447.06 131.71h-1.032v-1.728h-0.996v1.728h-0.852v0.816h0.852v4.752c0 0.648 0.432 0.996 1.212 0.996 0.264 0 0.48-0.024 0.816-0.084v-0.84c-0.144 0.036-0.276 0.048-0.48 0.048-0.432 0-0.552-0.12-0.552-0.564v-4.308h1.032z"/>
      <path d="m448.02 140.62h1.008v-3.276c0.528 0.648 1.116 0.936 1.932 0.936 1.632 0 2.688-1.308 2.688-3.312 0-2.112-1.032-3.432-2.7-3.432-0.852 0-1.536 0.384-2.004 1.128v-0.948h-0.924zm2.76-8.148c1.104 0 1.824 0.972 1.824 2.472 0 1.428-0.732 2.4-1.824 2.4-1.068 0-1.752-0.96-1.752-2.436s0.684-2.436 1.752-2.436z"/>
      <path d="m459.82 138v-6.288h-0.996v3.564c0 1.284-0.672 2.124-1.716 2.124-0.792 0-1.296-0.48-1.296-1.236v-4.452h-0.996v4.848c0 1.044 0.78 1.716 2.004 1.716 0.924 0 1.512-0.324 2.1-1.152v0.876z"/>
      <path d="m463.76 131.71h-1.032v-1.728h-0.996v1.728h-0.852v0.816h0.852v4.752c0 0.648 0.432 0.996 1.212 0.996 0.264 0 0.48-0.024 0.816-0.084v-0.84c-0.144 0.036-0.276 0.048-0.48 0.048-0.432 0-0.552-0.12-0.552-0.564v-4.308h1.032z"/>
     </g>
    </g>
    <g stroke="#000080" stroke-width="2">
     <path d="m204 37v40"/>
     <path d="m224 57h20"/>
     <path d="m224 52v10"/>
     <path d="m184 67h39"/>
     <path d="m184 47h39"/>
     <path d="m224 52c0-8.2843-8.954-15-20-15" fill-rule="evenodd"/>
     <path d="m224 62c0 8.2843-8.954 15-20 15" fill-rule="evenodd"/>
    </g>
   </g>
   <g font-weight="400">
    <g transform="translate(13.372 1.888)" font-size="12px" stroke="#000">
     <g fill="#000" stroke="none" aria-label="CD4071BE_1">
      <path d="m172.94 17.964c-0.348-1.92-1.452-2.856-3.372-2.856-1.176 0-2.124 0.372-2.772 1.092-0.792 0.864-1.224 2.112-1.224 3.528 0 1.44 0.444 2.676 1.26 3.528 0.684 0.696 1.548 1.02 2.688 1.02 2.136 0 3.336-1.152 3.6-3.468h-1.152c-0.096 0.6-0.216 1.008-0.396 1.356-0.36 0.72-1.104 1.128-2.04 1.128-1.74 0-2.844-1.392-2.844-3.576 0-2.244 1.044-3.624 2.748-3.624 0.708 0 1.368 0.204 1.728 0.552 0.324 0.3 0.504 0.66 0.636 1.32z"/>
      <path d="m174.55 24h3.372c2.208 0 3.564-1.656 3.564-4.38 0-2.712-1.344-4.368-3.564-4.368h-3.372zm1.116-0.984v-6.78h2.064c1.728 0 2.64 1.164 2.64 3.396 0 2.22-0.912 3.384-2.64 3.384z"/>
      <path d="m186.07 21.9v2.1h1.056v-2.1h1.26v-0.948h-1.26v-5.628h-0.78l-3.864 5.46v1.116zm0-0.948h-2.664l2.664-3.828z"/>
      <path d="m192.12 15.324c-0.792 0-1.512 0.36-1.956 0.948-0.552 0.768-0.828 1.92-0.828 3.528 0 2.928 0.96 4.476 2.784 4.476 1.8 0 2.784-1.548 2.784-4.404 0-1.68-0.264-2.808-0.828-3.6-0.444-0.6-1.152-0.948-1.956-0.948zm0 0.936c1.14 0 1.704 1.164 1.704 3.516 0 2.472-0.552 3.624-1.728 3.624-1.116 0-1.68-1.2-1.68-3.588s0.564-3.552 1.704-3.552z"/>
      <path d="m201.73 15.492h-5.688v1.044h4.596c-2.028 2.892-2.856 4.668-3.492 7.464h1.128c0.468-2.724 1.536-5.064 3.456-7.62z"/>
      <path d="m205.27 17.82v6.18h1.056v-8.676h-0.696c-0.372 1.332-0.612 1.512-2.244 1.728v0.768z"/>
      <path d="m209.78 24h3.948c0.828 0 1.44-0.228 1.908-0.732 0.432-0.456 0.672-1.08 0.672-1.764 0-1.056-0.48-1.692-1.596-2.124 0.804-0.372 1.212-1.008 1.212-1.908 0-0.648-0.24-1.2-0.696-1.608-0.468-0.42-1.056-0.612-1.896-0.612h-3.552zm1.116-4.98v-2.784h2.16c0.624 0 0.972 0.084 1.272 0.312 0.312 0.24 0.48 0.6 0.48 1.08s-0.168 0.84-0.48 1.08c-0.3 0.228-0.648 0.312-1.272 0.312zm0 3.996v-3.012h2.724c0.984 0 1.572 0.564 1.572 1.512 0 0.936-0.588 1.5-1.572 1.5z"/>
      <path d="m219.04 20.016h4.764v-0.984h-4.764v-2.796h4.944v-0.984h-6.06v8.748h6.276v-0.984h-5.16z"/>
      <path d="m231.78 25.512h-7.2v0.6h7.2z"/>
      <path d="m234.62 17.82v6.18h1.056v-8.676h-0.696c-0.372 1.332-0.612 1.512-2.244 1.728v0.768z"/>
     </g>
    </g>
    <g font-size="12" stroke="#000080" stroke-width="2">
     <path d="m194 117h40"/>
     <path d="m194 157h40"/>
     <path d="m194 117v40"/>
     <path d="m234 117v40"/>
     <path d="m184 127h10"/>
     <path d="m184 147h10"/>
     <path d="m244 127h-10"/>
     <path d="m214 157v10"/>
    </g>
    <g font-size="12" stroke="#000080">
     <path d="m194 143 8 4" vector-effect="non-scaling-stroke"/>
     <path d="m194 151 8-4" vector-effect="non-scaling-stroke"/>
    </g>
   </g>
   <g font-weight="100" stroke="#000080">
    <g transform="translate(197.5,122.75)" font-size="12px">
     <g fill="#000080" stroke="none" aria-label="D">
      <path d="m1.068 9h3.372c2.208 0 3.564-1.656 3.564-4.38 0-2.712-1.344-4.368-3.564-4.368h-3.372zm1.116-0.984v-6.78h2.064c1.728 0 2.64 1.164 2.64 3.396 0 2.22-0.912 3.384-2.64 3.384z"/>
     </g>
    </g>
    <g transform="translate(220.75,122.75)" font-size="12px">
     <g fill="#000080" stroke="none" aria-label="Q">
      <path d="m8.796 9.012-1.128-0.924c0.828-0.912 1.236-2.028 1.236-3.42 0-2.724-1.704-4.56-4.224-4.56-2.532 0-4.224 1.836-4.224 4.584 0 2.736 1.692 4.584 4.224 4.584 0.876 0 1.584-0.192 2.292-0.612l1.26 1.044zm-3.024-2.472-0.552 0.672 0.888 0.744c-0.516 0.252-0.912 0.336-1.44 0.336-1.86 0-3.096-1.44-3.096-3.6s1.236-3.6 3.108-3.6c1.86 0 3.108 1.44 3.108 3.588 0 1.14-0.3 2.004-0.948 2.736z"/>
     </g>
    </g>
    <g transform="translate(210,147.75)" font-size="9px">
     <g fill="#000080" stroke="none" aria-label="R">
      <path d="m1.674 4.174h2.16c0.747 0 1.08 0.36 1.08 1.17l-9e-3 0.585c0 0.405 0.072 0.801 0.189 1.071h1.017v-0.207c-0.315-0.216-0.378-0.45-0.396-1.323-9e-3 -1.08-0.18-1.404-0.891-1.71 0.738-0.369 1.035-0.81 1.035-1.566 0-1.134-0.702-1.755-1.998-1.755h-3.024v6.561h0.837zm0-0.738v-2.259h2.025c0.468 0 0.738 0.072 0.945 0.252 0.225 0.189 0.342 0.486 0.342 0.873 0 0.783-0.396 1.134-1.287 1.134z"/>
     </g>
    </g>
   </g>
   <g transform="translate(9.114 2.78)" font-size="12px" font-weight="400" stroke="#000">
    <g fill="#000" stroke="none" aria-label="CD4013BE">
     <path d="m182.94 97.964c-0.348-1.92-1.452-2.856-3.372-2.856-1.176 0-2.124 0.372-2.772 1.092-0.792 0.864-1.224 2.112-1.224 3.528 0 1.44 0.444 2.676 1.26 3.528 0.684 0.696 1.548 1.02 2.688 1.02 2.136 0 3.336-1.152 3.6-3.468h-1.152c-0.096 0.6-0.216 1.008-0.396 1.356-0.36 0.72-1.104 1.128-2.04 1.128-1.74 0-2.844-1.392-2.844-3.576 0-2.244 1.044-3.624 2.748-3.624 0.708 0 1.368 0.204 1.728 0.552 0.324 0.3 0.504 0.66 0.636 1.32z"/>
     <path d="m184.55 104h3.372c2.208 0 3.564-1.656 3.564-4.38 0-2.712-1.344-4.368-3.564-4.368h-3.372zm1.116-0.984v-6.78h2.064c1.728 0 2.64 1.164 2.64 3.396 0 2.22-0.912 3.384-2.64 3.384z"/>
     <path d="m196.07 101.9v2.1h1.056v-2.1h1.26v-0.948h-1.26v-5.628h-0.78l-3.864 5.46v1.116zm0-0.948h-2.664l2.664-3.828z"/>
     <path d="m202.12 95.324c-0.792 0-1.512 0.36-1.956 0.948-0.552 0.768-0.828 1.92-0.828 3.528 0 2.928 0.96 4.476 2.784 4.476 1.8 0 2.784-1.548 2.784-4.404 0-1.68-0.264-2.808-0.828-3.6-0.444-0.6-1.152-0.948-1.956-0.948zm0 0.936c1.14 0 1.704 1.164 1.704 3.516 0 2.472-0.552 3.624-1.728 3.624-1.116 0-1.68-1.2-1.68-3.588s0.564-3.552 1.704-3.552z"/>
     <path d="m208.6 97.82v6.18h1.056v-8.676h-0.696c-0.372 1.332-0.612 1.512-2.244 1.728v0.768z"/>
     <path d="m214.82 100h0.576c1.152 0 1.764 0.54 1.764 1.584 0 1.092-0.66 1.752-1.752 1.752-1.164 0-1.728-0.588-1.8-1.86h-1.056c0.048 0.696 0.168 1.152 0.372 1.536 0.444 0.84 1.272 1.26 2.436 1.26 1.752 0 2.88-1.056 2.88-2.7 0-1.104-0.42-1.704-1.44-2.064 0.792-0.324 1.188-0.924 1.188-1.8 0-1.488-0.972-2.388-2.592-2.388-1.716 0-2.628 0.96-2.664 2.796h1.056c0.012-0.528 0.06-0.828 0.192-1.092 0.24-0.492 0.768-0.78 1.428-0.78 0.936 0 1.5 0.564 1.5 1.5 0 0.612-0.216 0.984-0.684 1.188-0.288 0.12-0.672 0.168-1.404 0.18z"/>
     <path d="m219.78 104h3.948c0.828 0 1.44-0.228 1.908-0.732 0.432-0.456 0.672-1.08 0.672-1.764 0-1.056-0.48-1.692-1.596-2.124 0.804-0.372 1.212-1.008 1.212-1.908 0-0.648-0.24-1.2-0.696-1.608-0.468-0.42-1.056-0.612-1.896-0.612h-3.552zm1.116-4.98v-2.784h2.16c0.624 0 0.972 0.084 1.272 0.312 0.312 0.24 0.48 0.6 0.48 1.08s-0.168 0.84-0.48 1.08c-0.3 0.228-0.648 0.312-1.272 0.312zm0 3.996v-3.012h2.724c0.984 0 1.572 0.564 1.572 1.512 0 0.936-0.588 1.5-1.572 1.5z"/>
     <path d="m229.04 100.02h4.764v-0.984h-4.764v-2.796h4.944v-0.984h-6.06v8.748h6.276v-0.984h-5.16z"/>
    </g>
   </g>
   <g font-size="12" font-weight="400">
    <g stroke="#008000" stroke-width="2">
     <path d="m44 167h10"/>
     <path d="m34 157 10 10"/>
     <path d="m34 177 10-10"/>
     <path d="m19 157h15"/>
     <path d="m19 177h15"/>
     <path d="m19 157v20"/>
     <path d="m22 172h4"/>
     <path d="m26 162h4"/>
     <path d="m30 172h4"/>
     <path d="m26 162v10"/>
     <path d="m30 162v10"/>
    </g>
    <g stroke="#000">
     <g fill="#000" stroke="none" aria-label="_LowHalfPWM">
      <path d="m25.936 193.51h-7.2v0.6h7.2z"/>
      <path d="m27.748 183.25h-1.116v8.748h5.436v-0.984h-4.32z"/>
      <path d="m35.488 185.53c-1.776 0-2.832 1.26-2.832 3.372 0 2.124 1.056 3.372 2.844 3.372 1.776 0 2.844-1.26 2.844-3.324 0-2.184-1.032-3.42-2.856-3.42zm0.012 0.924c1.128 0 1.8 0.924 1.8 2.484 0 1.488-0.696 2.412-1.8 2.412-1.116 0-1.8-0.924-1.8-2.448s0.684-2.448 1.8-2.448z"/>
      <path d="m45.4 192 1.848-6.288h-1.128l-1.248 4.896-1.236-4.896h-1.224l-1.2 4.896-1.284-4.896h-1.104l1.824 6.288h1.128l1.212-4.932 1.272 4.932z"/>
      <path d="m54.028 188.02v3.984h1.116v-8.748h-1.116v3.78h-4.5v-3.78h-1.116v8.748h1.116v-3.984z"/>
      <path d="m62.416 191.41c-0.108 0.024-0.156 0.024-0.216 0.024-0.348 0-0.54-0.18-0.54-0.492v-3.696c0-1.116-0.816-1.716-2.364-1.716-0.924 0-1.656 0.264-2.088 0.732-0.288 0.324-0.408 0.684-0.432 1.308h1.008c0.084-0.768 0.54-1.116 1.476-1.116 0.912 0 1.404 0.336 1.404 0.936v0.264c-0.012 0.432-0.228 0.588-1.044 0.696-1.416 0.18-1.632 0.228-2.016 0.384-0.732 0.312-1.104 0.864-1.104 1.68 0 1.14 0.792 1.86 2.064 1.86 0.792 0 1.428-0.276 2.136-0.924 0.072 0.648 0.384 0.924 1.032 0.924 0.216 0 0.348-0.024 0.684-0.108zm-1.752-1.392c0 0.336-0.096 0.54-0.396 0.816-0.408 0.372-0.9 0.564-1.488 0.564-0.78 0-1.236-0.372-1.236-1.008 0-0.66 0.432-0.996 1.512-1.152 1.068-0.144 1.272-0.192 1.608-0.348z"/>
      <path d="m64.492 183.25h-1.008v8.748h1.008z"/>
      <path d="m68.428 185.71h-1.044v-0.984c0-0.42 0.228-0.636 0.696-0.636 0.084 0 0.12 0 0.348 0.012v-0.828c-0.228-0.048-0.36-0.06-0.564-0.06-0.924 0-1.476 0.528-1.476 1.428v1.068h-0.84v0.816h0.84v5.472h0.996v-5.472h1.044z"/>
      <path d="m70.876 188.29h2.748c0.684 0 1.224-0.204 1.692-0.624 0.528-0.48 0.756-1.044 0.756-1.848 0-1.644-0.972-2.568-2.7-2.568h-3.612v8.748h1.116zm0-0.984v-3.072h2.328c1.068 0 1.704 0.576 1.704 1.536s-0.636 1.536-1.704 1.536z"/>
      <path d="m85.348 192 2.22-8.748h-1.248l-1.608 7.104-1.992-7.104h-1.2l-1.944 7.104-1.644-7.104h-1.248l2.244 8.748h1.224l1.956-7.188 2.016 7.188z"/>
      <path d="m93.268 192 2.46-7.332v7.332h1.056v-8.748h-1.548l-2.544 7.62-2.592-7.62h-1.548v8.748h1.056v-7.332l2.484 7.332z"/>
     </g>
    </g>
    <g stroke="#000080" stroke-width="2">
     <path d="m54 97h90"/>
     <path d="m374 117h50"/>
     <path d="m184 47v10"/>
     <path d="m184 57v10"/>
     <path d="m274 107h40"/>
     <path d="m244 57h30"/>
     <path d="m274 57v50"/>
     <path d="m144 57h40"/>
     <path d="m144 57v40"/>
     <path d="m244 127h70"/>
     <path d="m144 147h40"/>
     <path d="m144 97v30"/>
     <path d="m144 127h40"/>
     <path d="m144 147v20"/>
     <path d="m54 167h90"/>
    </g>
   </g>
  </g>
  <g fill="#000080" fill-rule="evenodd" font-size="12" font-weight="400">
   <g stroke="none">
    <path d="m52 95h4v4h-4v-4" vector-effect="non-scaling-stroke"/>
    <path d="m212 165h4v4h-4v-4" vector-effect="non-scaling-stroke"/>
    <path d="m372 115h4v4h-4v-4" vector-effect="non-scaling-stroke"/>
    <path d="m312 125h4v4h-4v-4" vector-effect="non-scaling-stroke"/>
    <path d="m312 105h4v4h-4v-4" vector-effect="non-scaling-stroke"/>
    <path d="m422 115h4v4h-4v-4" vector-effect="non-scaling-stroke"/>
    <path d="m182 45h4v4h-4v-4" vector-effect="non-scaling-stroke"/>
    <path d="m242 55h4v4h-4v-4" vector-effect="non-scaling-stroke"/>
    <path d="m182 65h4v4h-4v-4" vector-effect="non-scaling-stroke"/>
   </g>
   <g stroke="#000080" stroke-linecap="square" stroke-linejoin="bevel">
    <path d="m187 57c0 1.6569-1.343 3-3 3s-3-1.3431-3-3 1.343-3 3-3 3 1.3431 3 3"/>
    <path d="m147 97c0 1.6569-1.343 3-3 3s-3-1.3431-3-3 1.343-3 3-3 3 1.3431 3 3"/>
   </g>
   <g stroke="none">
    <path d="m182 125h4v4h-4v-4" vector-effect="non-scaling-stroke"/>
    <path d="m182 145h4v4h-4v-4" vector-effect="non-scaling-stroke"/>
    <path d="m242 125h4v4h-4v-4" vector-effect="non-scaling-stroke"/>
    <path d="m52 165h4v4h-4v-4" vector-effect="non-scaling-stroke"/>
   </g>
  </g>
 </g>
</svg>
